<svg width="993" height="545" viewBox="0 0 993 545" fill="none" xmlns="http://www.w3.org/2000/svg">
<g filter="url(#filter0_d_504_9)">
<path d="M26.3079 197V170.36L30.4479 181.07L2.27794 134H21.0879L41.4279 168.11H30.5379L50.9679 134H68.2479L40.1679 181.07L44.1279 170.36V197H26.3079ZM93.789 197.81C88.449 197.81 83.709 196.73 79.569 194.57C75.429 192.41 72.159 189.44 69.759 185.66C67.419 181.82 66.249 177.44 66.249 172.52C66.249 167.6 67.419 163.25 69.759 159.47C72.159 155.69 75.429 152.75 79.569 150.65C83.709 148.49 88.449 147.41 93.789 147.41C99.129 147.41 103.869 148.49 108.009 150.65C112.209 152.75 115.479 155.69 117.819 159.47C120.159 163.25 121.329 167.6 121.329 172.52C121.329 177.44 120.159 181.82 117.819 185.66C115.479 189.44 112.209 192.41 108.009 194.57C103.869 196.73 99.129 197.81 93.789 197.81ZM93.789 184.22C95.769 184.22 97.509 183.77 99.009 182.87C100.569 181.97 101.799 180.65 102.699 178.91C103.599 177.11 104.049 174.98 104.049 172.52C104.049 170.06 103.599 167.99 102.699 166.31C101.799 164.57 100.569 163.25 99.009 162.35C97.509 161.45 95.769 161 93.789 161C91.869 161 90.129 161.45 88.569 162.35C87.069 163.25 85.839 164.57 84.879 166.31C83.979 167.99 83.529 170.06 83.529 172.52C83.529 174.98 83.979 177.11 84.879 178.91C85.839 180.65 87.069 181.97 88.569 182.87C90.129 183.77 91.869 184.22 93.789 184.22ZM152.47 197.81C148.51 197.81 144.94 197.03 141.76 195.47C138.64 193.91 136.18 191.48 134.38 188.18C132.64 184.82 131.77 180.59 131.77 175.49V148.22H148.87V172.7C148.87 176.48 149.56 179.18 150.94 180.8C152.38 182.42 154.39 183.23 156.97 183.23C158.65 183.23 160.18 182.84 161.56 182.06C162.94 181.28 164.05 180.05 164.89 178.37C165.73 176.63 166.15 174.41 166.15 171.71V148.22H183.25V197H166.96V183.23L170.11 187.1C168.43 190.7 166 193.4 162.82 195.2C159.64 196.94 156.19 197.81 152.47 197.81ZM195.075 162.98L201.825 139.58L204.255 149.3C201.255 149.3 198.795 148.43 196.875 146.69C194.955 144.89 193.995 142.49 193.995 139.49C193.995 136.43 194.955 134 196.875 132.2C198.855 130.34 201.315 129.41 204.255 129.41C207.195 129.41 209.625 130.34 211.545 132.2C213.465 134 214.425 136.43 214.425 139.49C214.425 140.33 214.365 141.2 214.245 142.1C214.125 142.94 213.855 143.96 213.435 145.16C213.075 146.3 212.445 147.86 211.545 149.84L205.785 162.98H195.075ZM225.153 197V148.22H241.443V162.44L239.013 158.39C240.453 154.73 242.793 152 246.033 150.2C249.273 148.34 253.203 147.41 257.823 147.41V162.8C257.043 162.68 256.353 162.62 255.753 162.62C255.213 162.56 254.613 162.53 253.953 162.53C250.473 162.53 247.653 163.49 245.493 165.41C243.333 167.27 242.253 170.33 242.253 174.59V197H225.153ZM292.7 197.81C286.94 197.81 281.9 196.73 277.58 194.57C273.32 192.35 269.99 189.35 267.59 185.57C265.25 181.73 264.08 177.38 264.08 172.52C264.08 167.66 265.22 163.34 267.5 159.56C269.84 155.72 273.05 152.75 277.13 150.65C281.21 148.49 285.8 147.41 290.9 147.41C295.7 147.41 300.08 148.4 304.04 150.38C308 152.3 311.15 155.15 313.49 158.93C315.83 162.71 317 167.3 317 172.7C317 173.3 316.97 173.99 316.91 174.77C316.85 175.55 316.79 176.27 316.73 176.93H278.12V167.93H307.64L301.16 170.45C301.22 168.23 300.8 166.31 299.9 164.69C299.06 163.07 297.86 161.81 296.3 160.91C294.8 160.01 293.03 159.56 290.99 159.56C288.95 159.56 287.15 160.01 285.59 160.91C284.09 161.81 282.92 163.1 282.08 164.78C281.24 166.4 280.82 168.32 280.82 170.54V173.15C280.82 175.55 281.3 177.62 282.26 179.36C283.28 181.1 284.72 182.45 286.58 183.41C288.44 184.31 290.66 184.76 293.24 184.76C295.64 184.76 297.68 184.43 299.36 183.77C301.1 183.05 302.81 181.97 304.49 180.53L313.49 189.89C311.15 192.47 308.27 194.45 304.85 195.83C301.43 197.15 297.38 197.81 292.7 197.81ZM380.956 197.81C375.616 197.81 370.876 196.73 366.736 194.57C362.596 192.41 359.326 189.44 356.926 185.66C354.586 181.82 353.416 177.44 353.416 172.52C353.416 167.6 354.586 163.25 356.926 159.47C359.326 155.69 362.596 152.75 366.736 150.65C370.876 148.49 375.616 147.41 380.956 147.41C386.296 147.41 391.036 148.49 395.176 150.65C399.376 152.75 402.646 155.69 404.986 159.47C407.326 163.25 408.496 167.6 408.496 172.52C408.496 177.44 407.326 181.82 404.986 185.66C402.646 189.44 399.376 192.41 395.176 194.57C391.036 196.73 386.296 197.81 380.956 197.81ZM380.956 184.22C382.936 184.22 384.676 183.77 386.176 182.87C387.736 181.97 388.966 180.65 389.866 178.91C390.766 177.11 391.216 174.98 391.216 172.52C391.216 170.06 390.766 167.99 389.866 166.31C388.966 164.57 387.736 163.25 386.176 162.35C384.676 161.45 382.936 161 380.956 161C379.036 161 377.296 161.45 375.736 162.35C374.236 163.25 373.006 164.57 372.046 166.31C371.146 167.99 370.696 170.06 370.696 172.52C370.696 174.98 371.146 177.11 372.046 178.91C373.006 180.65 374.236 181.97 375.736 182.87C377.296 183.77 379.036 184.22 380.956 184.22ZM450.887 147.41C454.667 147.41 458.087 148.19 461.147 149.75C464.207 151.25 466.607 153.59 468.347 156.77C470.147 159.95 471.047 164.06 471.047 169.1V197H453.947V171.89C453.947 168.41 453.227 165.89 451.787 164.33C450.407 162.71 448.457 161.9 445.937 161.9C444.137 161.9 442.487 162.32 440.987 163.16C439.487 163.94 438.317 165.17 437.477 166.85C436.637 168.53 436.217 170.72 436.217 173.42V197H419.117V148.22H435.407V162.08L432.257 158.03C434.117 154.49 436.667 151.85 439.907 150.11C443.147 148.31 446.807 147.41 450.887 147.41ZM530.115 197V170.36L534.255 181.07L506.085 134H524.895L545.235 168.11H534.345L554.775 134H572.055L543.975 181.07L547.935 170.36V197H530.115ZM597.596 197.81C592.256 197.81 587.516 196.73 583.376 194.57C579.236 192.41 575.966 189.44 573.566 185.66C571.226 181.82 570.056 177.44 570.056 172.52C570.056 167.6 571.226 163.25 573.566 159.47C575.966 155.69 579.236 152.75 583.376 150.65C587.516 148.49 592.256 147.41 597.596 147.41C602.936 147.41 607.676 148.49 611.816 150.65C616.016 152.75 619.286 155.69 621.626 159.47C623.966 163.25 625.136 167.6 625.136 172.52C625.136 177.44 623.966 181.82 621.626 185.66C619.286 189.44 616.016 192.41 611.816 194.57C607.676 196.73 602.936 197.81 597.596 197.81ZM597.596 184.22C599.576 184.22 601.316 183.77 602.816 182.87C604.376 181.97 605.606 180.65 606.506 178.91C607.406 177.11 607.856 174.98 607.856 172.52C607.856 170.06 607.406 167.99 606.506 166.31C605.606 164.57 604.376 163.25 602.816 162.35C601.316 161.45 599.576 161 597.596 161C595.676 161 593.936 161.45 592.376 162.35C590.876 163.25 589.646 164.57 588.686 166.31C587.786 167.99 587.336 170.06 587.336 172.52C587.336 174.98 587.786 177.11 588.686 178.91C589.646 180.65 590.876 181.97 592.376 182.87C593.936 183.77 595.676 184.22 597.596 184.22ZM656.277 197.81C652.317 197.81 648.747 197.03 645.567 195.47C642.447 193.91 639.987 191.48 638.187 188.18C636.447 184.82 635.577 180.59 635.577 175.49V148.22H652.677V172.7C652.677 176.48 653.367 179.18 654.747 180.8C656.187 182.42 658.197 183.23 660.777 183.23C662.457 183.23 663.987 182.84 665.367 182.06C666.747 181.28 667.857 180.05 668.697 178.37C669.537 176.63 669.957 174.41 669.957 171.71V148.22H687.057V197H670.767V183.23L673.917 187.1C672.237 190.7 669.807 193.4 666.627 195.2C663.447 196.94 659.997 197.81 656.277 197.81ZM700.771 197V148.22H717.061V162.44L714.631 158.39C716.071 154.73 718.411 152 721.651 150.2C724.891 148.34 728.821 147.41 733.441 147.41V162.8C732.661 162.68 731.971 162.62 731.371 162.62C730.831 162.56 730.231 162.53 729.571 162.53C726.091 162.53 723.271 163.49 721.111 165.41C718.951 167.27 717.871 170.33 717.871 174.59V197H700.771ZM788.645 197L768.215 134H786.575L803.765 188.54H794.495L812.585 134H828.965L846.065 188.54H837.155L854.885 134H871.895L851.465 197H832.385L817.805 150.65H822.935L807.725 197H788.645ZM906.357 197V187.91L905.187 185.66V168.92C905.187 166.22 904.347 164.15 902.667 162.71C901.047 161.21 898.437 160.46 894.837 160.46C892.497 160.46 890.127 160.85 887.727 161.63C885.327 162.35 883.287 163.37 881.607 164.69L875.847 153.08C878.607 151.28 881.907 149.9 885.747 148.94C889.647 147.92 893.517 147.41 897.357 147.41C905.277 147.41 911.397 149.24 915.717 152.9C920.097 156.5 922.287 162.17 922.287 169.91V197H906.357ZM891.957 197.81C888.057 197.81 884.757 197.15 882.057 195.83C879.357 194.51 877.287 192.71 875.847 190.43C874.467 188.15 873.777 185.6 873.777 182.78C873.777 179.78 874.527 177.2 876.027 175.04C877.587 172.82 879.957 171.14 883.137 170C886.317 168.8 890.427 168.2 895.467 168.2H906.987V177.11H897.807C895.047 177.11 893.097 177.56 891.957 178.46C890.877 179.36 890.337 180.56 890.337 182.06C890.337 183.56 890.907 184.76 892.047 185.66C893.187 186.56 894.747 187.01 896.727 187.01C898.587 187.01 900.267 186.56 901.767 185.66C903.327 184.7 904.467 183.26 905.187 181.34L907.527 187.64C906.627 191 904.857 193.55 902.217 195.29C899.637 196.97 896.217 197.81 891.957 197.81ZM943.272 215.27C940.692 215.27 938.082 214.85 935.442 214.01C932.862 213.23 930.762 212.18 929.142 210.86L935.082 198.89C936.102 199.79 937.272 200.48 938.592 200.96C939.972 201.5 941.322 201.77 942.642 201.77C944.502 201.77 945.972 201.35 947.052 200.51C948.132 199.67 949.062 198.35 949.842 196.55L952.092 190.88L953.442 189.17L970.002 148.22H986.292L965.232 198.98C963.552 203.18 961.602 206.45 959.382 208.79C957.222 211.19 954.792 212.87 952.092 213.83C949.452 214.79 946.512 215.27 943.272 215.27ZM949.932 199.07L928.422 148.22H945.972L961.812 187.64L949.932 199.07ZM159.958 307.81C153.718 307.81 148.858 306.28 145.378 303.22C141.898 300.1 140.158 295.42 140.158 289.18V247.33H157.258V289C157.258 290.74 157.738 292.12 158.698 293.14C159.658 294.1 160.888 294.58 162.388 294.58C164.428 294.58 166.168 294.07 167.608 293.05L171.838 305.02C170.398 305.98 168.628 306.67 166.528 307.09C164.428 307.57 162.238 307.81 159.958 307.81ZM133.048 272.8V260.02H168.418V272.8H133.048ZM204.206 307.81C198.866 307.81 194.126 306.73 189.986 304.57C185.846 302.41 182.576 299.44 180.176 295.66C177.836 291.82 176.666 287.44 176.666 282.52C176.666 277.6 177.836 273.25 180.176 269.47C182.576 265.69 185.846 262.75 189.986 260.65C194.126 258.49 198.866 257.41 204.206 257.41C209.546 257.41 214.286 258.49 218.426 260.65C222.626 262.75 225.896 265.69 228.236 269.47C230.576 273.25 231.746 277.6 231.746 282.52C231.746 287.44 230.576 291.82 228.236 295.66C225.896 299.44 222.626 302.41 218.426 304.57C214.286 306.73 209.546 307.81 204.206 307.81ZM204.206 294.22C206.186 294.22 207.926 293.77 209.426 292.87C210.986 291.97 212.216 290.65 213.116 288.91C214.016 287.11 214.466 284.98 214.466 282.52C214.466 280.06 214.016 277.99 213.116 276.31C212.216 274.57 210.986 273.25 209.426 272.35C207.926 271.45 206.186 271 204.206 271C202.286 271 200.546 271.45 198.986 272.35C197.486 273.25 196.256 274.57 195.296 276.31C194.396 277.99 193.946 280.06 193.946 282.52C193.946 284.98 194.396 287.11 195.296 288.91C196.256 290.65 197.486 291.97 198.986 292.87C200.546 293.77 202.286 294.22 204.206 294.22ZM272.069 307V244H289.889V292.87H319.949V307H272.069ZM354.275 307.81C348.515 307.81 343.475 306.73 339.155 304.57C334.895 302.35 331.565 299.35 329.165 295.57C326.825 291.73 325.655 287.38 325.655 282.52C325.655 277.66 326.795 273.34 329.075 269.56C331.415 265.72 334.625 262.75 338.705 260.65C342.785 258.49 347.375 257.41 352.475 257.41C357.275 257.41 361.655 258.4 365.615 260.38C369.575 262.3 372.725 265.15 375.065 268.93C377.405 272.71 378.575 277.3 378.575 282.7C378.575 283.3 378.545 283.99 378.485 284.77C378.425 285.55 378.365 286.27 378.305 286.93H339.695V277.93H369.215L362.735 280.45C362.795 278.23 362.375 276.31 361.475 274.69C360.635 273.07 359.435 271.81 357.875 270.91C356.375 270.01 354.605 269.56 352.565 269.56C350.525 269.56 348.725 270.01 347.165 270.91C345.665 271.81 344.495 273.1 343.655 274.78C342.815 276.4 342.395 278.32 342.395 280.54V283.15C342.395 285.55 342.875 287.62 343.835 289.36C344.855 291.1 346.295 292.45 348.155 293.41C350.015 294.31 352.235 294.76 354.815 294.76C357.215 294.76 359.255 294.43 360.935 293.77C362.675 293.05 364.385 291.97 366.065 290.53L375.065 299.89C372.725 302.47 369.845 304.45 366.425 305.83C363.005 307.15 358.955 307.81 354.275 307.81ZM401.87 307L381.8 258.22H399.35L415.37 298.99H406.55L423.38 258.22H439.67L419.51 307H401.87ZM471.032 307.81C465.272 307.81 460.232 306.73 455.912 304.57C451.652 302.35 448.322 299.35 445.922 295.57C443.582 291.73 442.412 287.38 442.412 282.52C442.412 277.66 443.552 273.34 445.832 269.56C448.172 265.72 451.382 262.75 455.462 260.65C459.542 258.49 464.132 257.41 469.232 257.41C474.032 257.41 478.412 258.4 482.372 260.38C486.332 262.3 489.482 265.15 491.822 268.93C494.162 272.71 495.332 277.3 495.332 282.7C495.332 283.3 495.302 283.99 495.242 284.77C495.182 285.55 495.122 286.27 495.062 286.93H456.452V277.93H485.972L479.492 280.45C479.552 278.23 479.132 276.31 478.232 274.69C477.392 273.07 476.192 271.81 474.632 270.91C473.132 270.01 471.362 269.56 469.322 269.56C467.282 269.56 465.482 270.01 463.922 270.91C462.422 271.81 461.252 273.1 460.412 274.78C459.572 276.4 459.152 278.32 459.152 280.54V283.15C459.152 285.55 459.632 287.62 460.592 289.36C461.612 291.1 463.052 292.45 464.912 293.41C466.772 294.31 468.992 294.76 471.572 294.76C473.972 294.76 476.012 294.43 477.692 293.77C479.432 293.05 481.142 291.97 482.822 290.53L491.822 299.89C489.482 302.47 486.602 304.45 483.182 305.83C479.762 307.15 475.712 307.81 471.032 307.81ZM505.916 307V240.22H523.016V307H505.916ZM536.829 307V258.22H553.929V307H536.829ZM545.379 252.82C542.259 252.82 539.739 251.95 537.819 250.21C535.899 248.47 534.939 246.31 534.939 243.73C534.939 241.15 535.899 238.99 537.819 237.25C539.739 235.51 542.259 234.64 545.379 234.64C548.499 234.64 551.019 235.48 552.939 237.16C554.859 238.78 555.819 240.88 555.819 243.46C555.819 246.16 554.859 248.41 552.939 250.21C551.079 251.95 548.559 252.82 545.379 252.82ZM599.512 257.41C603.292 257.41 606.712 258.19 609.772 259.75C612.832 261.25 615.232 263.59 616.972 266.77C618.772 269.95 619.672 274.06 619.672 279.1V307H602.572V281.89C602.572 278.41 601.852 275.89 600.412 274.33C599.032 272.71 597.082 271.9 594.562 271.9C592.762 271.9 591.112 272.32 589.612 273.16C588.112 273.94 586.942 275.17 586.102 276.85C585.262 278.53 584.842 280.72 584.842 283.42V307H567.742V258.22H584.032V272.08L580.882 268.03C582.742 264.49 585.292 261.85 588.532 260.11C591.772 258.31 595.432 257.41 599.512 257.41ZM657.573 325.27C652.893 325.27 648.423 324.73 644.163 323.65C639.963 322.57 636.363 320.98 633.363 318.88L639.573 306.91C641.613 308.53 644.133 309.79 647.133 310.69C650.193 311.65 653.163 312.13 656.043 312.13C660.663 312.13 663.993 311.11 666.033 309.07C668.073 307.09 669.093 304.18 669.093 300.34V294.58L669.993 280.9L669.903 267.13V258.22H686.193V298.09C686.193 307.33 683.703 314.17 678.723 318.61C673.743 323.05 666.693 325.27 657.573 325.27ZM654.603 304.48C650.283 304.48 646.293 303.52 642.633 301.6C639.033 299.62 636.123 296.89 633.903 293.41C631.743 289.87 630.663 285.7 630.663 280.9C630.663 276.1 631.743 271.96 633.903 268.48C636.123 264.94 639.033 262.21 642.633 260.29C646.293 258.37 650.283 257.41 654.603 257.41C658.743 257.41 662.283 258.25 665.223 259.93C668.163 261.55 670.383 264.1 671.883 267.58C673.443 271.06 674.223 275.5 674.223 280.9C674.223 286.3 673.443 290.74 671.883 294.22C670.383 297.7 668.163 300.28 665.223 301.96C662.283 303.64 658.743 304.48 654.603 304.48ZM658.653 290.89C660.693 290.89 662.493 290.47 664.053 289.63C665.673 288.79 666.933 287.62 667.833 286.12C668.793 284.62 669.273 282.88 669.273 280.9C669.273 278.92 668.793 277.18 667.833 275.68C666.933 274.18 665.673 273.04 664.053 272.26C662.493 271.42 660.693 271 658.653 271C656.613 271 654.783 271.42 653.163 272.26C651.543 273.04 650.253 274.18 649.293 275.68C648.393 277.18 647.943 278.92 647.943 280.9C647.943 282.88 648.393 284.62 649.293 286.12C650.253 287.62 651.543 288.79 653.163 289.63C654.783 290.47 656.613 290.89 658.653 290.89ZM758.652 308.26C749.352 308.26 742.092 305.71 736.872 300.61C731.652 295.51 729.042 288.28 729.042 278.92V244H746.862V278.38C746.862 283.78 747.912 287.65 750.012 289.99C752.172 292.33 755.112 293.5 758.832 293.5C762.552 293.5 765.462 292.33 767.562 289.99C769.662 287.65 770.712 283.78 770.712 278.38V244H788.262V278.92C788.262 288.28 785.652 295.51 780.432 300.61C775.212 305.71 767.952 308.26 758.652 308.26ZM832.914 307.81C828.774 307.81 825.234 306.91 822.294 305.11C819.354 303.25 817.104 300.49 815.544 296.83C814.044 293.11 813.294 288.37 813.294 282.61C813.294 276.79 814.014 272.05 815.454 268.39C816.894 264.67 819.054 261.91 821.934 260.11C824.874 258.31 828.534 257.41 832.914 257.41C837.354 257.41 841.374 258.46 844.974 260.56C848.634 262.6 851.514 265.51 853.614 269.29C855.774 273.01 856.854 277.45 856.854 282.61C856.854 287.77 855.774 292.24 853.614 296.02C851.514 299.8 848.634 302.71 844.974 304.75C841.374 306.79 837.354 307.81 832.914 307.81ZM802.224 324.46V258.22H818.514V266.5L818.424 282.61L819.324 298.81V324.46H802.224ZM829.314 294.22C831.234 294.22 832.944 293.77 834.444 292.87C836.004 291.97 837.234 290.65 838.134 288.91C839.094 287.17 839.574 285.07 839.574 282.61C839.574 280.15 839.094 278.05 838.134 276.31C837.234 274.57 836.004 273.25 834.444 272.35C832.944 271.45 831.234 271 829.314 271C827.394 271 825.654 271.45 824.094 272.35C822.594 273.25 821.364 274.57 820.404 276.31C819.504 278.05 819.054 280.15 819.054 282.61C819.054 285.07 819.504 287.17 820.404 288.91C821.364 290.65 822.594 291.97 824.094 292.87C825.654 293.77 827.394 294.22 829.314 294.22Z" fill="white" fill-opacity="0.99"/>
</g>
<g clip-path="url(#clip0_504_9)">
<path d="M246.462 355.611C339.227 351.059 432.119 347.72 525.096 345.592C618.413 343.464 711.773 342.548 805.132 342.818C857.612 342.979 910.135 343.518 962.615 344.461L968.819 338.724C849.921 341.659 731.022 344.568 612.124 347.477L255.471 356.258L53.7938 361.187L47.7172 366.789C153.315 363.664 258.998 362.048 364.681 361.86C470.364 361.698 576.089 362.991 681.729 365.765C740.881 367.327 799.99 369.321 859.057 371.799L863.179 366.223C775.769 370.129 688.358 373.657 600.905 376.862C513.41 380.04 425.83 382.841 338.292 385.292C288.871 386.666 239.451 387.932 190.03 389.09L185.95 394.612C273.871 388.363 362.216 384.431 450.646 382.922C539.034 381.387 627.549 382.222 715.852 385.4C765.4 387.178 814.906 389.736 864.284 392.996L868.406 387.42C767.057 391.918 665.709 396.039 564.276 399.594C462.842 403.15 362.726 406.166 261.887 408.509C204.818 409.856 147.706 410.96 90.5937 411.849L86.4718 417.425C200.823 412.469 315.388 409.587 430.037 409.075C544.261 408.563 658.528 410.26 772.582 414.219C836.833 416.455 901.041 419.31 965.123 422.973C968.31 423.161 973.579 422.192 975.279 420.306C977.148 418.26 973.664 417.586 971.114 417.425C856.295 410.907 741.221 406.57 625.977 404.604C511.413 402.638 396.806 402.934 282.285 405.493C217.694 406.92 153.103 409.048 88.639 411.957C85.8769 412.092 81.0325 413.142 79.9702 414.974C78.9078 416.805 82.0099 417.586 84.5171 417.532C186.418 415.889 288.276 413.573 390.092 410.61C491.866 407.674 593.597 404.119 695.242 400.106C752.27 397.871 809.254 395.473 866.281 392.942C871.805 392.699 880.219 388.013 870.403 387.366C782.1 381.522 693.415 378.047 604.603 376.943C515.492 375.839 426.34 377.158 337.442 380.794C287.554 382.841 237.751 385.643 188.075 389.198C185.313 389.386 180.554 390.302 179.491 392.187C178.429 394.073 181.489 394.773 183.996 394.719C272.256 392.645 360.474 390.248 448.692 387.447C536.484 384.673 624.277 381.549 711.985 378.047C761.703 376.081 811.379 373.98 861.054 371.772C863.817 371.637 868.661 370.586 869.723 368.755C870.786 366.923 867.641 366.304 865.176 366.196C759.706 361.779 654.066 358.816 548.383 357.335C442.7 355.854 336.975 355.854 231.292 357.335C172.097 358.17 112.946 359.463 53.7938 361.213C50.4368 361.321 45.38 361.833 43.5102 363.907C41.768 365.819 44.9975 366.87 47.7596 366.816L404.37 358.116C523.226 355.207 642.125 352.298 760.981 349.416C828.207 347.773 895.39 346.157 962.615 344.514C966.057 344.434 971.242 343.868 973.154 341.767C975.066 339.666 971.582 338.831 968.819 338.804C875.162 337.054 781.42 336.596 687.721 337.35C594.021 338.131 500.407 340.124 406.835 343.329C354.057 345.134 301.322 347.343 248.629 349.928C245.867 350.063 239.876 351.275 239.408 353.403C238.941 355.719 244.04 355.719 246.377 355.611H246.462Z" fill="white"/>
</g>
<defs>
<filter id="filter0_d_504_9" x="-1.72205" y="129.41" width="992.014" height="203.86" filterUnits="userSpaceOnUse" color-interpolation-filters="sRGB">
<feFlood flood-opacity="0" result="BackgroundImageFix"/>
<feColorMatrix in="SourceAlpha" type="matrix" values="0 0 0 0 0 0 0 0 0 0 0 0 0 0 0 0 0 0 127 0" result="hardAlpha"/>
<feOffset dy="4"/>
<feGaussianBlur stdDeviation="2"/>
<feColorMatrix type="matrix" values="0 0 0 0 0 0 0 0 0 0 0 0 0 0 0 0 0 0 0.25 0"/>
<feBlend mode="normal" in2="BackgroundImageFix" result="effect1_dropShadow_504_9"/>
<feBlend mode="normal" in="SourceGraphic" in2="effect1_dropShadow_504_9" result="shape"/>
</filter>
<clipPath id="clip0_504_9">
<rect width="932.831" height="86" fill="white" transform="translate(43 337)"/>
</clipPath>
</defs>
</svg>
